<svg width="512" height="512" viewBox="0 0 512 512" fill="none" xmlns="http://www.w3.org/2000/svg">
  <rect width="512" height="512" rx="128" fill="url(#gradient)"/>
  <path d="M256 128C179.2 128 128 179.2 128 256C128 332.8 179.2 384 256 384C332.8 384 384 332.8 384 256C384 179.2 332.8 128 256 128ZM256 352C200.5 352 160 311.5 160 256C160 200.5 200.5 160 256 160C311.5 160 352 200.5 352 256C352 311.5 311.5 352 256 352Z" fill="white"/>
  <path d="M256 176C211.8 176 176 211.8 176 256C176 300.2 211.8 336 256 336C300.2 336 336 300.2 336 256C336 211.8 300.2 176 256 176ZM256 304C229.5 304 208 282.5 208 256C208 229.5 229.5 208 256 208C282.5 208 304 229.5 304 256C304 282.5 282.5 304 256 304Z" fill="white"/>
  <path d="M256 224C238.3 224 224 238.3 224 256C224 273.7 238.3 288 256 288C273.7 288 288 273.7 288 256C288 238.3 273.7 224 256 224Z" fill="white"/>
  <defs>
    <linearGradient id="gradient" x1="0%" y1="0%" x2="100%" y2="100%">
      <stop offset="0%" style="stop-color:#3B82F6;stop-opacity:1" />
      <stop offset="100%" style="stop-color:#1D4ED8;stop-opacity:1" />
    </linearGradient>
  </defs>
</svg> 